<?xml version="1.0" standalone="no"?>
<!DOCTYPE svg PUBLIC "-//W3C//DTD SVG 20010904//EN"
 "http://www.w3.org/TR/2001/REC-SVG-20010904/DTD/svg10.dtd">
<svg version="1.0" xmlns="http://www.w3.org/2000/svg"
 width="128.000000pt" height="128.000000pt" viewBox="0 0 128.000000 128.000000"
 preserveAspectRatio="xMidYMid meet">

<g transform="translate(0.000000,128.000000) scale(0.100000,-0.100000)"
fill="#000000" stroke="none">
<path d="M532 1270 c-232 -42 -425 -211 -499 -435 -22 -67 -26 -98 -26 -195
-1 -100 3 -126 27 -195 69 -201 210 -343 407 -410 73 -25 99 -28 199 -28 97 0
128 4 196 26 198 65 354 225 416 427 34 112 32 265 -6 375 -69 201 -212 345
-405 408 -91 31 -223 42 -309 27z m76 -47 c2 -16 -2 -23 -15 -24 -16 -1 -15
-2 2 -7 l20 -5 -20 -8 c-18 -7 -18 -8 5 -9 23 -1 23 -2 5 -10 -18 -8 -18 -9 5
-9 42 -2 9 -20 -45 -25 -27 -2 -60 -8 -72 -11 -20 -6 -23 -4 -23 22 0 16 -5
34 -10 39 -17 17 5 64 29 64 16 0 21 -9 26 -44 6 -35 10 -43 23 -38 12 4 13 7
3 10 -11 4 -11 6 0 13 12 7 11 9 -1 9 -13 0 -13 1 0 10 12 8 12 10 -5 10 -17
0 -17 2 -5 10 13 9 13 10 0 10 -13 0 -13 1 0 10 8 6 29 9 45 8 23 -2 31 -9 33
-25z m197 4 c25 -6 33 -12 23 -14 -14 -4 -16 -8 -8 -24 8 -14 7 -19 -1 -19 -6
0 -9 -6 -6 -14 3 -8 1 -17 -6 -20 -9 -3 -8 -8 3 -16 12 -9 10 -10 -10 -8 -28
3 -34 29 -10 40 12 5 11 7 -3 7 -11 1 -21 -8 -24 -19 -3 -11 -11 -20 -19 -20
-7 0 -12 6 -10 13 1 6 1 9 -1 5 -3 -5 -13 -8 -22 -8 -14 0 -17 7 -14 33 l3 32
-10 -32 c-6 -19 -17 -33 -26 -33 -11 0 -14 5 -9 18 4 9 12 36 17 60 l10 43 41
-6 c23 -4 60 -12 82 -18z m-409 -49 c4 -15 1 -25 -12 -35 -14 -10 -15 -13 -3
-13 8 0 20 5 26 11 8 8 13 8 17 0 4 -6 2 -11 -3 -11 -6 0 -11 -4 -11 -10 0 -5
9 -10 21 -10 12 0 17 -4 13 -11 -4 -6 -20 -8 -40 -4 -23 4 -41 1 -59 -11 -27
-18 -35 -40 -10 -30 8 3 22 9 30 12 27 11 16 -12 -12 -27 -16 -7 -31 -15 -34
-17 -4 -1 -21 20 -38 48 l-31 50 62 40 c35 22 66 40 70 40 4 0 10 -10 14 -22z
m574 -14 c27 -20 50 -39 50 -42 -1 -21 -20 -34 -41 -28 -24 7 -24 7 -4 -9 19
-15 19 -17 3 -26 -10 -6 -15 -16 -11 -26 4 -11 2 -14 -8 -11 -18 6 -25 48 -8
48 7 0 9 3 6 7 -4 3 -16 -2 -27 -12 -25 -23 -35 -14 -20 17 10 19 10 21 -1 11
-15 -15 -49 -17 -49 -4 0 5 10 11 23 15 17 5 19 8 8 15 -8 5 -9 11 -3 15 6 3
13 2 17 -4 3 -5 11 -10 17 -10 7 0 6 5 -1 14 -9 11 -10 20 -1 35 21 40 -14 12
-43 -34 -16 -25 -33 -42 -38 -39 -10 6 -7 13 23 57 11 15 16 27 11 27 -13 0
21 20 34 20 7 0 35 -16 63 -36z m-239 -54 c134 -25 280 -137 338 -260 90 -190
54 -399 -93 -546 -191 -191 -481 -190 -674 2 -188 188 -188 480 2 670 117 117
266 164 427 134z m363 -54 c6 -10 23 -31 39 -46 15 -16 27 -37 27 -47 -1 -20
-45 -57 -59 -48 -5 3 -11 -4 -13 -15 -2 -18 -9 -14 -40 27 -31 40 -34 49 -20
54 11 4 6 8 -16 12 -18 4 -32 10 -32 15 0 12 83 73 94 69 5 -2 14 -11 20 -21z
m-868 -35 c-26 -28 -19 -37 9 -11 28 26 33 16 9 -18 -8 -12 -11 -22 -6 -22 5
0 16 10 25 23 8 12 18 19 22 15 8 -7 -74 -118 -87 -118 -13 0 -9 17 7 30 8 7
15 17 15 23 0 6 -11 0 -25 -13 -29 -27 -32 -21 -9 15 9 14 12 25 6 25 -5 0
-16 -10 -25 -22 -8 -13 -18 -20 -22 -16 -4 4 12 30 35 58 23 28 40 53 38 56
-10 9 -68 -48 -68 -66 0 -10 -6 -23 -14 -29 -24 -20 -14 30 15 68 29 41 58 53
77 34 12 -12 12 -16 -2 -32z m955 -421 c5 0 9 7 9 15 0 21 18 19 23 -2 4 -14
5 -12 6 5 1 30 21 28 21 -3 0 -22 -4 -25 -40 -25 -37 0 -40 2 -39 28 2 23 2
24 6 5 2 -13 9 -23 14 -23z m-1065 15 c-11 -8 -25 -16 -30 -16 -6 -1 3 -5 19
-9 26 -7 23 -8 -20 -8 -46 -1 -48 0 -31 13 11 8 25 16 30 16 6 1 -2 5 -19 9
-26 7 -23 8 20 8 46 1 48 0 31 -13z m1064 -54 c0 -6 -5 -13 -10 -16 -15 -9 -2
-25 22 -25 15 0 19 5 15 20 -3 13 0 20 10 20 10 0 13 -9 11 -27 -3 -25 -6 -28
-38 -25 -38 3 -50 15 -43 43 5 19 33 27 33 10z m-1060 -21 c21 0 22 -2 10 -13
-8 -7 -28 -19 -43 -25 -26 -11 -28 -11 -22 8 4 11 2 20 -4 20 -6 0 -11 5 -11
11 0 7 9 9 23 5 12 -3 33 -6 47 -6z m40 -87 c0 -7 -4 -13 -10 -13 -5 0 -10 4
-10 9 0 6 -12 6 -32 0 -42 -12 -50 -2 -10 12 18 6 32 18 32 27 1 15 3 14 15
-2 8 -11 15 -26 15 -33z m1028 26 c37 -13 33 -29 -6 -30 l-27 0 24 -10 c38
-15 17 -22 -23 -8 -43 15 -47 29 -8 29 l27 1 -25 14 c-31 18 -7 20 38 4z
m-1018 -54 c0 -7 -58 -35 -72 -35 -7 1 3 9 22 20 35 19 50 24 50 15z m1010
-32 c3 -3 -1 -8 -7 -10 -7 -3 -13 -14 -13 -26 0 -19 -2 -19 -30 8 -16 16 -30
33 -30 38 0 9 70 0 80 -10z m-981 -22 c9 -15 6 -22 -15 -36 -31 -20 -58 -16
-62 8 -4 21 24 46 50 47 10 0 22 -9 27 -19z m918 -37 c16 -15 21 -24 11 -21
-22 7 -30 -3 -17 -20 21 -24 -13 -12 -59 23 -7 4 19 44 28 44 5 0 22 -12 37
-26z m-892 -31 c-5 -23 -4 -25 10 -13 8 7 18 11 21 8 3 -3 -10 -18 -28 -33
-34 -29 -47 -21 -27 17 12 22 11 23 -8 6 -33 -30 -39 -20 -8 12 36 37 49 38
40 3z m854 -70 c-17 -19 -33 -16 -59 12 -28 30 -15 34 16 4 12 -11 25 -16 28
-11 3 5 -3 17 -14 27 -11 10 -20 23 -20 28 0 6 13 -2 30 -18 23 -22 27 -32 19
-42z m-794 -9 c-8 -20 -15 -38 -15 -40 0 -2 -5 -4 -11 -4 -5 0 -7 5 -4 11 4 6
-3 13 -15 16 -21 6 -21 6 7 29 43 36 56 31 38 -12z m697 8 c-7 -2 -12 -8 -12
-14 0 -5 8 -7 19 -3 26 8 48 -20 31 -40 -12 -15 -40 -21 -40 -9 0 4 8 13 18
21 15 12 14 13 -10 7 -20 -4 -29 -2 -34 10 -8 20 14 48 29 39 8 -5 7 -8 -1
-11z m-657 -36 c-14 -21 -15 -29 -5 -41 10 -12 9 -15 -4 -15 -27 0 -29 27 -6
60 26 37 39 33 15 -4z m635 -57 c0 -7 -11 -4 -26 6 -25 16 -25 16 -14 -5 19
-36 3 -35 -19 1 -12 19 -21 37 -21 42 0 10 18 9 25 -3 11 -18 23 -10 18 13 -4
17 0 14 16 -11 12 -18 21 -37 21 -43z m-535 21 c-12 -20 7 -32 21 -13 19 25
18 0 -1 -37 -18 -34 -29 -40 -20 -10 7 22 -20 30 -28 8 -2 -7 -6 -11 -9 -8 -8
8 21 70 33 70 5 0 7 -4 4 -10z m450 -21 c9 -17 14 -36 12 -42 -4 -10 -37 51
-37 68 0 13 11 2 25 -26z m-354 1 c5 0 9 -5 9 -11 0 -6 -9 -9 -20 -6 -25 6
-26 -1 -2 -20 16 -13 15 -14 -5 -10 -27 6 -29 -1 -5 -19 16 -12 15 -13 -5 -14
-30 0 -34 10 -21 54 8 25 16 35 26 31 7 -3 18 -5 23 -5z m256 -30 c9 0 13 6 9
15 -3 8 -2 15 3 15 12 0 31 -69 20 -76 -5 -3 -9 2 -9 10 0 9 -7 16 -16 16 -10
0 -14 -6 -10 -15 3 -8 2 -15 -3 -15 -10 0 -21 37 -20 65 1 17 2 17 6 3 2 -10
11 -18 20 -18z m-187 -33 c0 -28 -3 -37 -9 -28 -5 8 -16 11 -25 8 -20 -8 -20
-8 -1 37 19 46 35 38 35 -17z m140 43 c0 -5 -5 -10 -11 -10 -7 0 -9 -12 -7
-30 3 -17 1 -33 -4 -36 -4 -3 -8 9 -8 26 0 18 -6 33 -15 36 -8 4 -12 10 -9 15
7 12 54 11 54 -1z m-90 -30 c0 -20 5 -30 15 -30 8 0 15 -4 15 -10 0 -5 -11
-10 -25 -10 -22 0 -25 4 -25 40 0 22 5 40 10 40 6 0 10 -13 10 -30z"/>
<path d="M480 1201 c0 -12 5 -21 10 -21 6 0 10 6 10 14 0 8 -4 18 -10 21 -5 3
-10 -3 -10 -14z"/>
<path d="M490 1146 c0 -22 3 -27 11 -19 8 8 8 16 0 30 -9 16 -10 14 -11 -11z"/>
<path d="M548 1143 c6 -2 18 -2 25 0 6 3 1 5 -13 5 -14 0 -19 -2 -12 -5z"/>
<path d="M708 1223 c6 -2 18 -2 25 0 6 3 1 5 -13 5 -14 0 -19 -2 -12 -5z"/>
<path d="M317 1144 c-22 -14 -36 -28 -33 -32 8 -7 96 39 96 50 0 14 -25 7 -63
-18z"/>
<path d="M320 1100 c-14 -11 -20 -20 -15 -20 6 0 21 9 35 20 14 11 21 20 15
20 -5 0 -21 -9 -35 -20z"/>
<path d="M936 1152 c-3 -5 8 -16 24 -25 16 -10 31 -14 34 -9 3 5 -8 16 -24 25
-16 10 -31 14 -34 9z"/>
<path d="M414 957 c-21 -18 -28 -35 -32 -75 l-5 -52 82 0 81 0 0 40 c0 51 -16
85 -47 99 -35 16 -49 14 -79 -12z"/>
<path d="M765 945 c-14 -13 -25 -36 -25 -50 0 -33 41 -75 73 -75 40 0 77 36
77 76 0 69 -76 99 -125 49z"/>
<path d="M425 800 c-11 -4 -31 -20 -45 -35 -25 -26 -25 -30 -28 -216 l-3 -189
110 0 111 0 0 110 0 110 70 0 70 0 0 -110 0 -110 110 0 110 0 0 170 c0 191 -9
228 -59 254 -50 26 -88 21 -127 -18 -19 -19 -34 -43 -34 -55 0 -19 -6 -21 -70
-21 -57 0 -70 3 -70 15 0 32 -32 77 -65 91 -38 16 -51 16 -80 4z"/>
<path d="M1020 1020 c-9 -6 -10 -10 -3 -10 6 0 15 5 18 10 8 12 4 12 -15 0z"/>
<path d="M1084 1017 c10 -7 27 -24 37 -38 10 -13 19 -18 19 -11 0 15 -48 62
-63 62 -6 0 -3 -6 7 -13z"/>
<path d="M1050 953 c0 -20 15 -23 27 -4 8 13 7 17 -8 17 -11 0 -19 -6 -19 -13z"/>
<path d="M157 369 c-9 -6 -17 -14 -17 -19 0 -16 30 -11 37 5 8 21 1 25 -20 14z"/>
<path d="M1075 331 c-3 -5 -1 -12 5 -16 5 -3 10 1 10 9 0 18 -6 21 -15 7z"/>
</g>
</svg>
